<svg xmlns="http://www.w3.org/2000/svg" viewBox="0 0 100 100">
  <!-- White background -->
  <rect width="100" height="100" fill="#fff"/>
  <!-- Hollow R: outer silhouette + inner cutouts via evenodd -->
  <path fill-rule="evenodd" fill="#000" d="
    M10,6 L10,91 L28,91 L28,58 L50,58 L68,91 L88,91 L67,56
    C84,50 91,40 91,27 C91,12 80,6 62,6 Z
    M14,10 L14,54 L24,54 L24,10 Z
    M14,62 L24,62 L24,87 L14,87 Z
    M28,22 L56,22 C65,22 72,28 72,35 C72,42 65,47 56,47 L28,47 Z
  "/>
  <!-- Pink square dot with black border -->
  <rect x="62" y="70" width="28" height="28" fill="#FF00CC" stroke="#000" stroke-width="5" stroke-linejoin="miter"/>
</svg>
